<?xml version="1.0" encoding="UTF-8" standalone="no"?>
<!DOCTYPE svg PUBLIC "-//W3C//DTD SVG 1.1//EN"
 "http://www.w3.org/Graphics/SVG/1.1/DTD/svg11.dtd">
<!-- Generated by graphviz version 2.43.0 (0)
 -->
<!-- Title: DockerDeps Pages: 1 -->
<svg width="617pt" height="590pt"
 viewBox="0.00 0.00 617.00 590.00" xmlns="http://www.w3.org/2000/svg" xmlns:xlink="http://www.w3.org/1999/xlink">
<g id="graph0" class="graph" transform="scale(1 1) rotate(0) translate(4 586)">
<title>DockerDeps</title>
<polygon fill="white" stroke="transparent" points="-4,4 -4,-586 613,-586 613,4 -4,4"/>
<g id="clust1" class="cluster">
<title>clusterDockerfile</title>
<polygon fill="none" stroke="royalblue" points="199,-116 199,-503 453,-503 453,-116 199,-116"/>
<text text-anchor="middle" x="326" y="-487.8" font-family="Times,serif" font-size="14.00">docker/&lt;distro&gt;/Dockerfile</text>
</g>
<g id="clust2" class="cluster">
<title>clusterCache</title>
<polygon fill="none" stroke="royalblue" points="8,-8 8,-83 485,-83 485,-8 8,-8"/>
<text text-anchor="middle" x="246.5" y="-67.8" font-family="Times,serif" font-size="14.00">cache/&lt;distro&gt;/</text>
</g>
<!-- DISTRO_IMG -->
<g id="node1" class="node">
<title>DISTRO_IMG</title>
<path fill="royalblue" stroke="black" d="M313,-577.73C313,-579.53 291.49,-581 265,-581 238.51,-581 217,-579.53 217,-577.73 217,-577.73 217,-548.27 217,-548.27 217,-546.47 238.51,-545 265,-545 291.49,-545 313,-546.47 313,-548.27 313,-548.27 313,-577.73 313,-577.73"/>
<path fill="none" stroke="black" d="M313,-577.73C313,-575.92 291.49,-574.45 265,-574.45 238.51,-574.45 217,-575.92 217,-577.73"/>
<text text-anchor="middle" x="265" y="-559.3" font-family="Times,serif" font-size="14.00">&lt;distro&gt;:latest</text>
</g>
<!-- ENV_IMG -->
<g id="node4" class="node">
<title>ENV_IMG</title>
<path fill="royalblue" stroke="black" d="M437.5,-467.35C437.5,-469.99 386.18,-472.13 323,-472.13 259.82,-472.13 208.5,-469.99 208.5,-467.35 208.5,-467.35 208.5,-424.4 208.5,-424.4 208.5,-421.76 259.82,-419.62 323,-419.62 386.18,-419.62 437.5,-421.76 437.5,-424.4 437.5,-424.4 437.5,-467.35 437.5,-467.35"/>
<path fill="none" stroke="black" d="M437.5,-467.35C437.5,-464.72 386.18,-462.58 323,-462.58 259.82,-462.58 208.5,-464.72 208.5,-467.35"/>
<text text-anchor="middle" x="323" y="-449.68" font-family="Times,serif" font-size="14.00">bazel&#45;pybind11&#45;protobuf:&lt;distro&gt;_env</text>
<text text-anchor="middle" x="323" y="-434.68" font-family="Times,serif" font-size="14.00">env</text>
</g>
<!-- DISTRO_IMG&#45;&gt;ENV_IMG -->
<g id="edge4" class="edge">
<title>DISTRO_IMG&#45;&gt;ENV_IMG</title>
<path fill="none" stroke="black" d="M273.81,-544.51C282.22,-527.82 295.12,-502.21 305.61,-481.4"/>
<polygon fill="black" stroke="black" points="308.85,-482.73 310.23,-472.23 302.6,-479.58 308.85,-482.73"/>
</g>
<!-- PKG -->
<g id="node2" class="node">
<title>PKG</title>
<polygon fill="royalblue" stroke="black" points="431,-582 335,-582 331,-578 331,-544 427,-544 431,-548 431,-582"/>
<polyline fill="none" stroke="black" points="427,-578 331,-578 "/>
<polyline fill="none" stroke="black" points="427,-578 427,-544 "/>
<polyline fill="none" stroke="black" points="427,-578 431,-582 "/>
<text text-anchor="middle" x="381" y="-566.8" font-family="Times,serif" font-size="14.00">packages</text>
<text text-anchor="middle" x="381" y="-551.8" font-family="Times,serif" font-size="14.00">e.g. bazel, g++</text>
</g>
<!-- PKG&#45;&gt;ENV_IMG -->
<g id="edge5" class="edge">
<title>PKG&#45;&gt;ENV_IMG</title>
<path fill="none" stroke="black" stroke-dasharray="5,2" d="M371.81,-543.76C363.39,-527.04 350.7,-501.86 340.37,-481.35"/>
<polygon fill="black" stroke="black" points="343.44,-479.66 335.81,-472.31 337.19,-482.81 343.44,-479.66"/>
<text text-anchor="middle" x="379" y="-514.8" font-family="Times,serif" font-size="14.00">install</text>
</g>
<!-- SRC -->
<g id="node3" class="node">
<title>SRC</title>
<polygon fill="royalblue" stroke="black" points="520.5,-463.88 517.5,-467.88 496.5,-467.88 493.5,-463.88 461.5,-463.88 461.5,-427.88 520.5,-427.88 520.5,-463.88"/>
<text text-anchor="middle" x="491" y="-442.18" font-family="Times,serif" font-size="14.00">git repo</text>
</g>
<!-- DEVEL_IMG -->
<g id="node5" class="node">
<title>DEVEL_IMG</title>
<path fill="royalblue" stroke="black" d="M445.5,-364.1C445.5,-366.74 391.94,-368.88 326,-368.88 260.06,-368.88 206.5,-366.74 206.5,-364.1 206.5,-364.1 206.5,-321.15 206.5,-321.15 206.5,-318.51 260.06,-316.37 326,-316.37 391.94,-316.37 445.5,-318.51 445.5,-321.15 445.5,-321.15 445.5,-364.1 445.5,-364.1"/>
<path fill="none" stroke="black" d="M445.5,-364.1C445.5,-361.47 391.94,-359.33 326,-359.33 260.06,-359.33 206.5,-361.47 206.5,-364.1"/>
<text text-anchor="middle" x="326" y="-346.43" font-family="Times,serif" font-size="14.00">bazel&#45;pybind11&#45;protobuf:&lt;distro&gt;_devel</text>
<text text-anchor="middle" x="326" y="-331.43" font-family="Times,serif" font-size="14.00">devel</text>
</g>
<!-- SRC&#45;&gt;DEVEL_IMG -->
<g id="edge6" class="edge">
<title>SRC&#45;&gt;DEVEL_IMG</title>
<path fill="none" stroke="black" stroke-dasharray="5,2" d="M468.57,-427.76C464.76,-425.01 460.8,-422.25 457,-419.75 432.63,-403.74 404.81,-387.32 381.09,-373.85"/>
<polygon fill="black" stroke="black" points="382.65,-370.71 372.22,-368.84 379.2,-376.8 382.65,-370.71"/>
<text text-anchor="middle" x="438.5" y="-390.55" font-family="Times,serif" font-size="14.00">copy</text>
</g>
<!-- ENV_IMG&#45;&gt;DEVEL_IMG -->
<g id="edge1" class="edge">
<title>ENV_IMG&#45;&gt;DEVEL_IMG</title>
<path fill="none" stroke="black" d="M323.75,-419.59C324.11,-407.38 324.55,-392.54 324.95,-379.22"/>
<polygon fill="black" stroke="black" points="328.45,-379.04 325.25,-368.94 321.46,-378.83 328.45,-379.04"/>
</g>
<!-- ENV_TAR -->
<g id="node8" class="node">
<title>ENV_TAR</title>
<polygon fill="royalblue" stroke="black" points="106.5,-52 15.5,-52 15.5,-16 112.5,-16 112.5,-46 106.5,-52"/>
<polyline fill="none" stroke="black" points="106.5,-52 106.5,-46 "/>
<polyline fill="none" stroke="black" points="112.5,-46 106.5,-46 "/>
<text text-anchor="middle" x="64" y="-30.3" font-family="Times,serif" font-size="14.00">docker_env.tar</text>
</g>
<!-- ENV_IMG&#45;&gt;ENV_TAR -->
<g id="edge7" class="edge">
<title>ENV_IMG&#45;&gt;ENV_TAR</title>
<path fill="none" stroke="red" d="M208.08,-429.23C119.49,-413.84 12,-386.35 12,-343.62 12,-343.62 12,-343.62 12,-149.12 12,-116.4 29.92,-82.77 44.72,-60.57"/>
<polygon fill="red" stroke="red" points="47.79,-62.29 50.61,-52.08 42.04,-58.3 47.79,-62.29"/>
<text text-anchor="middle" x="81.5" y="-249.68" font-family="Times,serif" font-size="14.00">make save_&lt;distro&gt;_env</text>
</g>
<!-- BUILD_IMG -->
<g id="node6" class="node">
<title>BUILD_IMG</title>
<path fill="royalblue" stroke="black" d="M444.5,-274.85C444.5,-277.49 391.39,-279.63 326,-279.63 260.61,-279.63 207.5,-277.49 207.5,-274.85 207.5,-274.85 207.5,-231.9 207.5,-231.9 207.5,-229.26 260.61,-227.12 326,-227.12 391.39,-227.12 444.5,-229.26 444.5,-231.9 444.5,-231.9 444.5,-274.85 444.5,-274.85"/>
<path fill="none" stroke="black" d="M444.5,-274.85C444.5,-272.22 391.39,-270.08 326,-270.08 260.61,-270.08 207.5,-272.22 207.5,-274.85"/>
<text text-anchor="middle" x="326" y="-257.18" font-family="Times,serif" font-size="14.00">bazel&#45;pybind11&#45;protobuf:&lt;distro&gt;_build</text>
<text text-anchor="middle" x="326" y="-242.18" font-family="Times,serif" font-size="14.00">build</text>
</g>
<!-- DEVEL_IMG&#45;&gt;BUILD_IMG -->
<g id="edge2" class="edge">
<title>DEVEL_IMG&#45;&gt;BUILD_IMG</title>
<path fill="none" stroke="black" d="M326,-316.39C326,-308.07 326,-298.66 326,-289.72"/>
<polygon fill="black" stroke="black" points="329.5,-289.55 326,-279.55 322.5,-289.55 329.5,-289.55"/>
</g>
<!-- DEVEL_TAR -->
<g id="node9" class="node">
<title>DEVEL_TAR</title>
<polygon fill="royalblue" stroke="black" points="231.5,-52 130.5,-52 130.5,-16 237.5,-16 237.5,-46 231.5,-52"/>
<polyline fill="none" stroke="black" points="231.5,-52 231.5,-46 "/>
<polyline fill="none" stroke="black" points="237.5,-46 231.5,-46 "/>
<text text-anchor="middle" x="184" y="-30.3" font-family="Times,serif" font-size="14.00">docker_devel.tar</text>
</g>
<!-- DEVEL_IMG&#45;&gt;DEVEL_TAR -->
<g id="edge8" class="edge">
<title>DEVEL_IMG&#45;&gt;DEVEL_TAR</title>
<path fill="none" stroke="red" d="M250.37,-316.73C231.52,-307.52 212.78,-295.33 199,-279.5 145.44,-217.95 163.73,-111.33 176.26,-61.77"/>
<polygon fill="red" stroke="red" points="179.65,-62.66 178.82,-52.09 172.88,-60.87 179.65,-62.66"/>
<text text-anchor="middle" x="240" y="-198.05" font-family="Times,serif" font-size="14.00">make save_&lt;distro&gt;_devel</text>
</g>
<!-- TEST_IMG -->
<g id="node7" class="node">
<title>TEST_IMG</title>
<path fill="royalblue" stroke="black" d="M435,-171.6C435,-174.24 383.9,-176.38 321,-176.38 258.1,-176.38 207,-174.24 207,-171.6 207,-171.6 207,-128.65 207,-128.65 207,-126.01 258.1,-123.87 321,-123.87 383.9,-123.87 435,-126.01 435,-128.65 435,-128.65 435,-171.6 435,-171.6"/>
<path fill="none" stroke="black" d="M435,-171.6C435,-168.97 383.9,-166.83 321,-166.83 258.1,-166.83 207,-168.97 207,-171.6"/>
<text text-anchor="middle" x="321" y="-153.93" font-family="Times,serif" font-size="14.00">bazel&#45;pybind11&#45;protobuf:&lt;distro&gt;_test</text>
<text text-anchor="middle" x="321" y="-138.93" font-family="Times,serif" font-size="14.00">test</text>
</g>
<!-- BUILD_IMG&#45;&gt;TEST_IMG -->
<g id="edge3" class="edge">
<title>BUILD_IMG&#45;&gt;TEST_IMG</title>
<path fill="none" stroke="black" d="M328.13,-227.17C328.66,-216.94 328.87,-205.02 328,-194.25 327.8,-191.74 327.53,-189.15 327.22,-186.55"/>
<polygon fill="black" stroke="black" points="330.67,-186 325.83,-176.58 323.74,-186.97 330.67,-186"/>
</g>
<!-- BUILD_TAR -->
<g id="node10" class="node">
<title>BUILD_TAR</title>
<polygon fill="royalblue" stroke="black" points="471,-52 371,-52 371,-16 477,-16 477,-46 471,-52"/>
<polyline fill="none" stroke="black" points="471,-52 471,-46 "/>
<polyline fill="none" stroke="black" points="477,-46 471,-46 "/>
<text text-anchor="middle" x="424" y="-30.3" font-family="Times,serif" font-size="14.00">docker_build.tar</text>
</g>
<!-- BUILD_IMG&#45;&gt;BUILD_TAR -->
<g id="edge9" class="edge">
<title>BUILD_IMG&#45;&gt;BUILD_TAR</title>
<path fill="none" stroke="red" d="M384.78,-227.15C406.66,-214.89 429.63,-198.02 444,-176.25 465.08,-144.32 465.82,-127.98 456,-91 453.2,-80.45 447.89,-69.81 442.39,-60.68"/>
<polygon fill="red" stroke="red" points="445.25,-58.66 436.91,-52.12 439.35,-62.43 445.25,-58.66"/>
<text text-anchor="middle" x="535.5" y="-146.43" font-family="Times,serif" font-size="14.00">make save_&lt;distro&gt;_build</text>
</g>
<!-- TEST_TAR -->
<g id="node11" class="node">
<title>TEST_TAR</title>
<polygon fill="royalblue" stroke="black" points="346.5,-52 255.5,-52 255.5,-16 352.5,-16 352.5,-46 346.5,-52"/>
<polyline fill="none" stroke="black" points="346.5,-52 346.5,-46 "/>
<polyline fill="none" stroke="black" points="352.5,-46 346.5,-46 "/>
<text text-anchor="middle" x="304" y="-30.3" font-family="Times,serif" font-size="14.00">docker_test.tar</text>
</g>
<!-- TEST_IMG&#45;&gt;TEST_TAR -->
<g id="edge10" class="edge">
<title>TEST_IMG&#45;&gt;TEST_TAR</title>
<path fill="none" stroke="red" d="M317.23,-123.8C314.5,-105.49 310.82,-80.78 308.03,-62.08"/>
<polygon fill="red" stroke="red" points="311.49,-61.5 306.55,-52.12 304.56,-62.53 311.49,-61.5"/>
<text text-anchor="middle" x="383" y="-94.8" font-family="Times,serif" font-size="14.00">make save_&lt;distro&gt;_test</text>
</g>
</g>
</svg>
